<svg xmlns="http://www.w3.org/2000/svg" viewBox="0 0 32 32">
  <defs>
    <linearGradient id="bg" x1="0" y1="0" x2="0" y2="32" gradientUnits="userSpaceOnUse">
      <stop offset="0" stop-color="#191b1d"/>
      <stop offset="1" stop-color="#101214"/>
    </linearGradient>
    <linearGradient id="outer" x1="16" y1="3" x2="16" y2="29" gradientUnits="userSpaceOnUse">
      <stop offset="0" stop-color="#fb923c"/>
      <stop offset="1" stop-color="#ea580c"/>
    </linearGradient>
    <linearGradient id="inner" x1="16" y1="12" x2="16" y2="27" gradientUnits="userSpaceOnUse">
      <stop offset="0" stop-color="#fde68a"/>
      <stop offset="1" stop-color="#f97316"/>
    </linearGradient>
    <linearGradient id="core" x1="16" y1="17" x2="16" y2="25" gradientUnits="userSpaceOnUse">
      <stop offset="0" stop-color="#fff7ed"/>
      <stop offset="1" stop-color="#fde68a"/>
    </linearGradient>
  </defs>

  <rect width="32" height="32" rx="8" fill="url(#bg)"/>

  <path fill="url(#outer)" d="M16 3c1.1 3.2-.6 4.9-2.1 6.6-2 2.2-4.1 4.6-4.1 8.4 0 5.1 4.1 9 9 9 5.3 0 9.2-4.1 9.2-9.2 0-4.3-2.3-6.6-3.9-8.9-.4 1.9-1.3 3.1-2.3 3.4-.2-3.9-2.1-6.6-5.8-9.3z"/>
  <path fill="url(#inner)" d="M17 12c.5 1.7-.4 2.7-1.4 3.8-1.3 1.4-2.6 2.9-2.6 5.3 0 3.1 2.4 5.5 5.4 5.5 3.1 0 5.6-2.4 5.6-5.6 0-2.5-1.4-3.9-2.4-5.2-.3 1.1-.9 1.8-1.5 2-.2-2.5-1.3-4.1-3.1-5.8z"/>
  <path fill="url(#core)" d="M17.3 17.2c.5 2.1-2.1 2.9-2.1 5.1 0 1.6 1.3 2.9 2.9 2.9 1.7 0 3-1.3 3-3 0-1.4-.8-2.1-1.4-2.8-.2.6-.5 1-.9 1.1 0-1.4-.5-2.4-1.5-3.3z"/>
</svg>
